<svg width="35" height="35" viewBox="0 0 35 35" fill="none" xmlns="http://www.w3.org/2000/svg">
<path d="M30.6374 21.4491L22.7578 30.58C22.2743 31.1399 21.4904 31.1402 21.0071 30.58C20.5239 30.0198 20.524 29.1115 21.0071 28.5512L26.7732 21.8694L6 21.8694C5.44772 21.8694 5 21.4217 5 20.8694V20C5 19.4477 5.44772 19 6 19L26.7732 19H29.8168C30.1075 19 30.3839 19.1266 30.5739 19.3467L30.6374 19.4203C31.1209 19.9806 31.1208 20.8888 30.6374 21.4491Z" fill="#2AB7F6"/>
<path d="M5.3626 14.5509L13.2422 5.42001C13.7257 4.86014 14.5096 4.85986 14.993 5.42001C15.4762 5.98017 15.476 6.88853 14.993 7.44878L9.22683 14.1306H30C30.5523 14.1306 31 14.5783 31 15.1306V16C31 16.5523 30.5523 17 30 17H9.22683H6.18324C5.89248 17 5.61612 16.8735 5.42616 16.6533L5.3626 16.5797C4.87912 16.0194 4.87918 15.1112 5.3626 14.5509Z" fill="#2AB7F6"/>
</svg>
