<?xml version="1.0" standalone="no"?>
<!DOCTYPE svg PUBLIC "-//W3C//DTD SVG 20010904//EN"
 "http://www.w3.org/TR/2001/REC-SVG-20010904/DTD/svg10.dtd">
<svg version="1.0" xmlns="http://www.w3.org/2000/svg"
 width="512.000000pt" height="512.000000pt" viewBox="0 0 512.000000 512.000000"
 preserveAspectRatio="xMidYMid meet">

<g transform="translate(0.000000,512.000000) scale(0.100000,-0.100000)"
fill="#000000" stroke="none">
<path d="M2385 4794 c-559 -59 -1000 -259 -1379 -624 -360 -348 -584 -784
-663 -1291 -24 -158 -24 -481 1 -639 61 -398 219 -764 463 -1074 72 -91 268
-287 359 -359 488 -384 1113 -552 1721 -461 894 132 1624 791 1843 1663 50
198 64 324 64 551 0 427 -99 792 -311 1148 -124 207 -327 443 -508 589 -312
251 -688 418 -1080 478 -97 15 -430 27 -510 19z m-75 -974 c68 -35 100 -107
80 -182 -10 -37 -49 -81 -288 -320 l-277 -278 951 0 951 0 33 -22 c48 -33 72
-70 77 -120 7 -58 -23 -118 -74 -149 l-38 -24 -1080 -3 c-752 -2 -1095 0
-1131 8 -125 27 -197 161 -149 278 19 44 763 796 810 818 43 19 90 17 135 -6z
m1410 -1450 c24 -14 58 -45 75 -68 26 -38 30 -52 30 -110 0 -40 -7 -78 -15
-94 -9 -15 -163 -199 -344 -409 -234 -272 -338 -385 -362 -395 -121 -51 -244
51 -220 182 6 28 61 98 247 314 131 153 239 281 239 284 0 3 -445 6 -989 6
l-988 0 -33 23 c-75 50 -99 130 -62 203 11 22 28 46 36 53 49 41 44 40 1216
38 l1125 -2 45 -25z"/>
</g>
</svg>
