<svg width="35" height="35" viewBox="0 0 35 35" fill="none" xmlns="http://www.w3.org/2000/svg">
<rect width="35" height="35" rx="5" fill="black"/>
<path d="M32.5814 21.4386L23.4896 30.5304C22.9317 31.0878 22.0273 31.0881 21.4695 30.5304C20.912 29.9726 20.9121 29.0681 21.4695 28.5103L28.1227 21.8571L4.00002 21.8571C3.44774 21.8571 3.00002 21.4094 3.00002 20.8571V20C3.00002 19.4477 3.44774 19 4.00002 19L28.1227 19H31.7487C32.0139 19 32.2682 19.1054 32.4558 19.2929L32.5814 19.4185C33.1392 19.9764 33.1392 20.8807 32.5814 21.4386Z" fill="#2AB7F6"/>
<path d="M3.41838 14.51L12.5101 5.4182C13.0681 4.86074 13.9725 4.86046 14.5302 5.4182C15.0878 5.97597 15.0876 6.88043 14.5302 7.43828L7.87707 14.0914H31.9997C32.552 14.0914 32.9998 14.5391 32.9998 15.0914V15.9486C32.9998 16.5008 32.552 16.9486 31.9998 16.9486H7.87707H4.25112C3.9859 16.9486 3.73155 16.8432 3.54401 16.6557L3.41838 16.53C2.86053 15.9722 2.8606 15.0679 3.41838 14.51Z" fill="#2AB7F6"/>
</svg>
